<svg width="25" height="25" viewBox="0 0 25 25" fill="none" xmlns="http://www.w3.org/2000/svg">
<g clip-path="url(#clip0_803_99)">
<path d="M24.2165 12.2541C24.2165 13.2715 23.5776 14.1178 22.9598 14.936C22.5892 15.4272 22.2386 15.8914 22.0409 16.3681C21.831 16.8744 21.7396 17.4977 21.6519 18.1005C21.5061 19.0983 21.3556 20.1306 20.6697 20.8161C19.9844 21.5015 18.9524 21.652 17.9546 21.7978C17.3518 21.8858 16.7285 21.9769 16.2223 22.1868C15.7453 22.3845 15.2813 22.7349 14.7901 23.1059C13.9719 23.7235 13.1257 24.3622 12.1082 24.3622C11.0908 24.3622 10.2446 23.7233 9.42638 23.1059C8.93516 22.7349 8.47092 22.3845 7.99423 22.1868C7.48796 21.9769 6.86465 21.8858 6.26185 21.7978C5.26358 21.652 4.23183 21.5015 3.54624 20.8161C2.86092 20.1308 2.71016 19.0985 2.56458 18.1005C2.47661 17.4977 2.38553 16.8744 2.1756 16.3681C1.97786 15.8914 1.62755 15.4272 1.25647 14.936C0.639134 14.1178 0 13.2715 0 12.2541C0 11.2366 0.639134 10.3903 1.25673 9.57215C1.62781 9.08093 1.97812 8.61669 2.17586 8.13999C2.38579 7.63371 2.47687 7.0104 2.56484 6.40759C2.71041 5.40983 2.86118 4.37755 3.5465 3.69196C4.23183 3.00663 5.26383 2.85612 6.26211 2.71028C6.86491 2.62231 7.48822 2.53123 7.99449 2.3213C8.47118 2.12356 8.93542 1.77324 9.42664 1.40216C10.2448 0.784816 11.0905 0.145935 12.1085 0.145935C13.1265 0.145935 13.9722 0.784816 14.7904 1.40216C15.2816 1.77324 15.7456 2.12356 16.2225 2.3213C16.7288 2.53123 17.3521 2.62231 17.9549 2.71028C18.9527 2.85612 19.9847 3.00663 20.67 3.69196C21.3556 4.37729 21.5061 5.40957 21.6522 6.40759C21.7399 7.0104 21.8312 7.63371 22.0412 8.13999C22.2389 8.61669 22.5892 9.08093 22.96 9.57215C23.5779 10.3903 24.2168 11.2366 24.2168 12.2541H24.2165Z" fill="#81D14E"/>
<path d="M18.1293 10.436L11.3629 17.2024C11.0817 17.4837 10.6257 17.4837 10.3444 17.2024L6.08743 12.9454C5.80614 12.6641 5.80614 12.2081 6.08743 11.9268L7.12385 10.8904C7.40514 10.6091 7.86107 10.6091 8.14237 10.8904L10.8538 13.6019L16.0746 8.38108C16.3559 8.09978 16.8118 8.09978 17.0931 8.38108L18.1295 9.41751C18.4108 9.6988 18.4105 10.1547 18.1293 10.436Z" fill="white"/>
</g>
<defs>
<clipPath id="clip0_803_99">
<rect width="24.2165" height="24.2165" fill="white" transform="translate(0 0.145935)"/>
</clipPath>
</defs>
</svg>
