<svg width="701" height="102" viewBox="0 0 701 102" fill="none" xmlns="http://www.w3.org/2000/svg">
<path d="M44.4953 26.836C50.2126 26.836 55.3046 27.9973 59.7713 30.32C64.3273 32.5533 67.9006 36.0373 70.4913 40.772C73.082 45.4173 74.3773 51.4027 74.3773 58.728V100H53.4733V61.944C53.4733 56.1373 52.178 51.8493 49.5873 49.08C47.086 46.3107 43.5126 44.926 38.8673 44.926C35.562 44.926 32.5693 45.6407 29.8893 47.07C27.2986 48.41 25.244 50.5093 23.7253 53.368C22.296 56.2267 21.5813 59.8893 21.5813 64.356V100H0.677297V27.908H20.6433V47.874L16.8913 41.844C19.482 37.02 23.1893 33.3127 28.0133 30.722C32.8373 28.1313 38.3313 26.836 44.4953 26.836ZM129.627 101.072C121.409 101.072 114.173 99.464 107.919 96.248C101.755 93.032 96.9758 88.6547 93.5812 83.116C90.1865 77.488 88.4892 71.1007 88.4892 63.954C88.4892 56.718 90.1418 50.3307 93.4472 44.792C96.8418 39.164 101.443 34.7867 107.249 31.66C113.056 28.444 119.622 26.836 126.947 26.836C134.005 26.836 140.347 28.3547 145.975 31.392C151.693 34.34 156.204 38.628 159.509 44.256C162.815 49.7947 164.467 56.45 164.467 64.222C164.467 65.026 164.423 65.964 164.333 67.036C164.244 68.0187 164.155 68.9567 164.065 69.85H105.507V57.656H153.077L145.037 61.274C145.037 57.522 144.278 54.2613 142.759 51.492C141.241 48.7227 139.141 46.5787 136.461 45.06C133.781 43.452 130.655 42.648 127.081 42.648C123.508 42.648 120.337 43.452 117.567 45.06C114.887 46.5787 112.788 48.7673 111.269 51.626C109.751 54.3953 108.991 57.7007 108.991 61.542V64.758C108.991 68.6887 109.84 72.1727 111.537 75.21C113.324 78.158 115.781 80.436 118.907 82.044C122.123 83.5627 125.875 84.322 130.163 84.322C134.005 84.322 137.355 83.7413 140.213 82.58C143.161 81.4187 145.841 79.6767 148.253 77.354L159.375 89.414C156.07 93.166 151.916 96.0693 146.913 98.124C141.911 100.089 136.149 101.072 129.627 101.072ZM167.309 100L199.603 57.656L199.201 69.18L168.247 27.908H191.697L211.261 54.842L202.417 55.11L222.651 27.908H244.895L213.807 68.778V57.522L245.967 100H222.249L201.747 71.324L210.457 72.53L190.089 100H167.309ZM285.595 101.072C277.108 101.072 270.497 98.928 265.763 94.64C261.028 90.2627 258.661 83.786 258.661 75.21V11.962H279.565V74.942C279.565 77.9793 280.369 80.3467 281.977 82.044C283.585 83.652 285.773 84.456 288.543 84.456C291.848 84.456 294.662 83.5627 296.985 81.776L302.613 96.516C300.469 98.0347 297.878 99.196 294.841 100C291.893 100.715 288.811 101.072 285.595 101.072ZM247.539 45.596V29.516H297.521V45.596H247.539ZM332.603 100L302.319 27.908H323.893L349.085 89.95H338.365L364.495 27.908H384.595L354.177 100H332.603Z" fill="url(#paint0_linear_526_1554)"/>
<path d="M393.125 100V0.571994H414.029V100H393.125ZM469.207 101.072C460.989 101.072 453.753 99.464 447.499 96.248C441.335 93.032 436.556 88.6547 433.161 83.116C429.767 77.488 428.069 71.1007 428.069 63.954C428.069 56.718 429.722 50.3307 433.027 44.792C436.422 39.164 441.023 34.7867 446.829 31.66C452.636 28.444 459.202 26.836 466.527 26.836C473.585 26.836 479.927 28.3547 485.555 31.392C491.273 34.34 495.784 38.628 499.089 44.256C502.395 49.7947 504.047 56.45 504.047 64.222C504.047 65.026 504.003 65.964 503.913 67.036C503.824 68.0187 503.735 68.9567 503.645 69.85H445.087V57.656H492.657L484.617 61.274C484.617 57.522 483.858 54.2613 482.339 51.492C480.821 48.7227 478.721 46.5787 476.041 45.06C473.361 43.452 470.235 42.648 466.661 42.648C463.088 42.648 459.917 43.452 457.147 45.06C454.467 46.5787 452.368 48.7673 450.849 51.626C449.331 54.3953 448.571 57.7007 448.571 61.542V64.758C448.571 68.6887 449.42 72.1727 451.117 75.21C452.904 78.158 455.361 80.436 458.487 82.044C461.703 83.5627 465.455 84.322 469.743 84.322C473.585 84.322 476.935 83.7413 479.793 82.58C482.741 81.4187 485.421 79.6767 487.833 77.354L498.955 89.414C495.65 93.166 491.496 96.0693 486.493 98.124C481.491 100.089 475.729 101.072 469.207 101.072ZM536.22 100L505.936 27.908H527.51L552.702 89.95H541.982L568.112 27.908H588.212L557.794 100H536.22ZM630.557 101.072C622.338 101.072 615.102 99.464 608.849 96.248C602.685 93.032 597.906 88.6547 594.511 83.116C591.116 77.488 589.419 71.1007 589.419 63.954C589.419 56.718 591.072 50.3307 594.377 44.792C597.772 39.164 602.372 34.7867 608.179 31.66C613.986 28.444 620.552 26.836 627.877 26.836C634.934 26.836 641.277 28.3547 646.905 31.392C652.622 34.34 657.134 38.628 660.439 44.256C663.744 49.7947 665.397 56.45 665.397 64.222C665.397 65.026 665.352 65.964 665.263 67.036C665.174 68.0187 665.084 68.9567 664.995 69.85H606.437V57.656H654.007L645.967 61.274C645.967 57.522 645.208 54.2613 643.689 51.492C642.17 48.7227 640.071 46.5787 637.391 45.06C634.711 43.452 631.584 42.648 628.011 42.648C624.438 42.648 621.266 43.452 618.497 45.06C615.817 46.5787 613.718 48.7673 612.199 51.626C610.68 54.3953 609.921 57.7007 609.921 61.542V64.758C609.921 68.6887 610.77 72.1727 612.467 75.21C614.254 78.158 616.71 80.436 619.837 82.044C623.053 83.5627 626.805 84.322 631.093 84.322C634.934 84.322 638.284 83.7413 641.143 82.58C644.091 81.4187 646.771 79.6767 649.183 77.354L660.305 89.414C657 93.166 652.846 96.0693 647.843 98.124C642.84 100.089 637.078 101.072 630.557 101.072ZM679.314 100V0.571994H700.218V100H679.314Z" fill="url(#paint1_linear_526_1554)" fill-opacity="0.25"/>
<defs>
<linearGradient id="paint0_linear_526_1554" x1="350.658" y1="10.4398" x2="350.658" y2="108" gradientUnits="userSpaceOnUse">
<stop offset="0.515" stop-color="#606060" stop-opacity="0"/>
<stop offset="1" stop-color="#595959"/>
</linearGradient>
<linearGradient id="paint1_linear_526_1554" x1="-440" y1="51.5" x2="1141" y2="51.5" gradientUnits="userSpaceOnUse">
<stop stop-color="white"/>
<stop offset="1" stop-color="#666666" stop-opacity="0"/>
</linearGradient>
</defs>
</svg>
